<mxfile host="app.diagrams.net" agent="Mozilla/5.0 (Windows NT 10.0; Win64; x64; rv:131.0) Gecko/20100101 Firefox/131.0" version="24.7.17">
  <diagram name="Сторінка-1" id="9W7YPoLE95fgt-i6941y">
    <mxGraphModel dx="470" dy="487" grid="0" gridSize="10" guides="1" tooltips="1" connect="1" arrows="1" fold="1" page="1" pageScale="1" pageWidth="827" pageHeight="1169" math="0" shadow="0">
      <root>
        <mxCell id="0" />
        <mxCell id="1" parent="0" />
        <mxCell id="A_qU9X2pQf0G5yiEEf1S-7" style="edgeStyle=orthogonalEdgeStyle;rounded=0;orthogonalLoop=1;jettySize=auto;html=1;exitX=0.5;exitY=1;exitDx=0;exitDy=0;" edge="1" parent="1" source="A_qU9X2pQf0G5yiEEf1S-2" target="A_qU9X2pQf0G5yiEEf1S-3">
          <mxGeometry relative="1" as="geometry" />
        </mxCell>
        <mxCell id="A_qU9X2pQf0G5yiEEf1S-2" value="Start" style="ellipse;whiteSpace=wrap;html=1;" vertex="1" parent="1">
          <mxGeometry x="180" y="40" width="120" height="50" as="geometry" />
        </mxCell>
        <mxCell id="A_qU9X2pQf0G5yiEEf1S-8" style="edgeStyle=orthogonalEdgeStyle;rounded=0;orthogonalLoop=1;jettySize=auto;html=1;exitX=0.5;exitY=1;exitDx=0;exitDy=0;entryX=0.5;entryY=0;entryDx=0;entryDy=0;" edge="1" parent="1" source="A_qU9X2pQf0G5yiEEf1S-3" target="A_qU9X2pQf0G5yiEEf1S-4">
          <mxGeometry relative="1" as="geometry" />
        </mxCell>
        <mxCell id="A_qU9X2pQf0G5yiEEf1S-3" value="input n, m" style="shape=parallelogram;perimeter=parallelogramPerimeter;whiteSpace=wrap;html=1;fixedSize=1;" vertex="1" parent="1">
          <mxGeometry x="150" y="110" width="180" height="40" as="geometry" />
        </mxCell>
        <mxCell id="A_qU9X2pQf0G5yiEEf1S-9" style="edgeStyle=orthogonalEdgeStyle;rounded=0;orthogonalLoop=1;jettySize=auto;html=1;exitX=0.5;exitY=1;exitDx=0;exitDy=0;entryX=0.5;entryY=0;entryDx=0;entryDy=0;" edge="1" parent="1" source="A_qU9X2pQf0G5yiEEf1S-4" target="A_qU9X2pQf0G5yiEEf1S-5">
          <mxGeometry relative="1" as="geometry" />
        </mxCell>
        <mxCell id="A_qU9X2pQf0G5yiEEf1S-4" value="&lt;div&gt;res1 = n++*m&lt;/div&gt;&lt;div&gt;res2 = n++ &amp;lt; m&lt;/div&gt;&lt;div&gt;res3 = m -- &amp;gt; m&lt;br&gt;&lt;/div&gt;" style="rounded=0;whiteSpace=wrap;html=1;" vertex="1" parent="1">
          <mxGeometry x="150" y="170" width="180" height="50" as="geometry" />
        </mxCell>
        <mxCell id="A_qU9X2pQf0G5yiEEf1S-10" style="edgeStyle=orthogonalEdgeStyle;rounded=0;orthogonalLoop=1;jettySize=auto;html=1;exitX=0.5;exitY=1;exitDx=0;exitDy=0;entryX=0.5;entryY=0;entryDx=0;entryDy=0;" edge="1" parent="1" source="A_qU9X2pQf0G5yiEEf1S-5" target="A_qU9X2pQf0G5yiEEf1S-6">
          <mxGeometry relative="1" as="geometry" />
        </mxCell>
        <mxCell id="A_qU9X2pQf0G5yiEEf1S-5" value="output res1, res2, res3" style="shape=parallelogram;perimeter=parallelogramPerimeter;whiteSpace=wrap;html=1;fixedSize=1;" vertex="1" parent="1">
          <mxGeometry x="150" y="240" width="180" height="40" as="geometry" />
        </mxCell>
        <mxCell id="A_qU9X2pQf0G5yiEEf1S-6" value="Finish" style="ellipse;whiteSpace=wrap;html=1;" vertex="1" parent="1">
          <mxGeometry x="180" y="300" width="120" height="50" as="geometry" />
        </mxCell>
      </root>
    </mxGraphModel>
  </diagram>
</mxfile>
